HIERARCHY
ROOT joint_Root
{
	OFFSET 0.0 0.0 0.0
	CHANNELS 6 Xposition Yposition Zposition Zrotation Xrotation Yrotation 
	JOINT Hips
	{
		OFFSET 4.5925 91.4895 -427.239
		CHANNELS 6 Xposition Yposition Zposition Zrotation Xrotation Yrotation 
		JOINT Spine
		{
			OFFSET 15.7357 0.0 0.0
			CHANNELS 6 Xposition Yposition Zposition Zrotation Xrotation Yrotation 
			JOINT Chest
			{
				OFFSET 8.98455 -0.406207 0.0
				CHANNELS 6 Xposition Yposition Zposition Zrotation Xrotation Yrotation 
				JOINT Neck
				{
					OFFSET 16.3773 0.0 0.0
					CHANNELS 6 Xposition Yposition Zposition Zrotation Xrotation Yrotation 
					JOINT Head
					{
						OFFSET 6.45672 0.0 0.0
						CHANNELS 6 Xposition Yposition Zposition Zrotation Xrotation Yrotation 
						End Site
						{
							OFFSET 0.0 0.0 0.0
						}
					}
				}
				JOINT Shoulder_L
				{
					OFFSET 12.9942 -0.242716 4.98039
					CHANNELS 6 Xposition Yposition Zposition Zrotation Xrotation Yrotation 
					JOINT UpperArm_L
					{
						OFFSET 5.34809 0.0 0.0
						CHANNELS 6 Xposition Yposition Zposition Zrotation Xrotation Yrotation 
						JOINT LowerArm_L
						{
							OFFSET 24.3286 1.87007e-05 0.0
							CHANNELS 6 Xposition Yposition Zposition Zrotation Xrotation Yrotation 
							JOINT Hand_L
							{
								OFFSET 22.2916 0.0 0.0
								CHANNELS 6 Xposition Yposition Zposition Zrotation Xrotation Yrotation 
								End Site
								{
									OFFSET 0.0 0.0 0.0
								}
							}
						}
					}
				}
				JOINT Shoulder_R
				{
					OFFSET 12.9945 -0.242716 -4.98039
					CHANNELS 6 Xposition Yposition Zposition Zrotation Xrotation Yrotation 
					JOINT UpperArm_R
					{
						OFFSET -5.34813 0.0 0.0
						CHANNELS 6 Xposition Yposition Zposition Zrotation Xrotation Yrotation 
						JOINT LowerArm_R
						{
							OFFSET -24.3289 0.000322201 0.0
							CHANNELS 6 Xposition Yposition Zposition Zrotation Xrotation Yrotation 
							JOINT Hand_R
							{
								OFFSET -22.2915 -0.000108084 0.0
								CHANNELS 6 Xposition Yposition Zposition Zrotation Xrotation Yrotation 
								End Site
								{
									OFFSET 0.0 0.0 0.0
								}
							}
						}
					}
				}
			}
		}
		JOINT UpperLeg_L
		{
			OFFSET -2.19248 -6.46944 0.0
			CHANNELS 6 Xposition Yposition Zposition Zrotation Xrotation Yrotation 
			JOINT LowerLeg_L
			{
				OFFSET 39.0811 0.0 -1.23785e-05
				CHANNELS 6 Xposition Yposition Zposition Zrotation Xrotation Yrotation 
				JOINT Foot_L
				{
					OFFSET 40.9854 0.0 -1.26872e-05
					CHANNELS 6 Xposition Yposition Zposition Zrotation Xrotation Yrotation 
					JOINT Toes_L
					{
						OFFSET 11.7543 0.0 0.0
						CHANNELS 6 Xposition Yposition Zposition Zrotation Xrotation Yrotation 
						End Site
						{
							OFFSET 0.0 0.0 0.0
						}
					}
				}
			}
		}
		JOINT UpperLeg_R
		{
			OFFSET -2.19251 6.46944 0.0
			CHANNELS 6 Xposition Yposition Zposition Zrotation Xrotation Yrotation 
			JOINT LowerLeg_R
			{
				OFFSET -39.0811 -0.00228153 -0.0401928
				CHANNELS 6 Xposition Yposition Zposition Zrotation Xrotation Yrotation 
				JOINT Foot_R
				{
					OFFSET -40.9854 0.0 0.0
					CHANNELS 6 Xposition Yposition Zposition Zrotation Xrotation Yrotation 
					JOINT Toes_R
					{
						OFFSET -11.7543 0.0 0.0
						CHANNELS 6 Xposition Yposition Zposition Zrotation Xrotation Yrotation 
						End Site
						{
							OFFSET 0.0 0.0 0.0
						}
					}
				}
			}
		}
	}
}
MOTION
Frames:	4
Frame Time:	0.0333333
0.000000 0.000000 0.000000 0.000000 0.000000 -0.000000 -1.045430 90.321700 -5.331420 89.350800 -2.205250 10.273700 15.735700 0.000005 -0.000001 88.665200 78.567700 -89.173900 8.984550 -0.406207 -0.000000 15.090500 -0.557982 -0.944270 16.377300 -0.000001 -0.000001 7.202330 -3.038010 1.791740 6.456720 -0.000001 -0.000000 -7.431570 -2.259380 1.599760 12.994200 -0.242716 4.980390 -90.035000 0.126163 -74.504600 5.348090 -0.000007 -0.000001 -68.660000 -16.322000 -68.011700 24.328600 0.000019 0.000005 45.474400 -10.160000 -99.842900 22.291600 -0.000001 0.000005 40.948200 4.870420 9.962780 12.994500 -0.242716 -4.980390 89.445400 3.488090 -80.959300 -5.348130 -0.000001 -0.000004 -61.562500 -19.954200 -68.956400 -24.328900 0.000322 -0.000009 25.330900 -6.283190 -103.018000 -22.291500 -0.000108 -0.000004 43.567600 5.349490 -1.362130 -2.192480 -6.469440 -0.000000 -174.957000 -11.397000 -5.918660 39.081100 -0.000007 -0.000012 -0.211281 0.304715 34.736800 40.985400 -0.000006 -0.000013 0.539565 5.723630 -68.439200 11.754300 -0.000000 0.000003 -0.000083 -0.000876 -16.611300 -2.192510 6.469440 -0.000001 176.312000 19.065600 175.637000 -39.081100 -0.002282 -0.040193 -0.136958 0.206440 34.191500 -40.985400 0.000008 0.000006 5.532730 12.595600 -69.994800 -11.754300 -0.000006 -0.000006 -0.002651 -0.036583 -18.060800
0.000000 0.000000 0.000000 0.000000 0.000000 -0.000000 -1.055120 90.320300 -5.289190 89.336500 -2.235620 10.255700 15.735700 0.000005 -0.000001 88.761600 78.571600 -89.255600 8.984550 -0.406207 -0.000000 15.083900 -0.518899 -0.919937 16.377300 -0.000001 -0.000001 7.188320 -3.020990 1.784130 6.456720 -0.000001 -0.000000 -7.432740 -2.245520 1.539410 12.994200 -0.242716 4.980390 -90.062300 0.223586 -74.421400 5.348090 -0.000007 -0.000001 -72.468300 -17.604300 -67.446600 24.328600 0.000019 0.000005 44.369000 -9.692380 -99.765400 22.291600 -0.000001 0.000005 41.193200 4.866870 10.031900 12.994500 -0.242716 -4.980390 89.435700 3.531150 -80.914600 -5.348130 -0.000001 -0.000004 -65.017200 -20.606400 -68.999900 -24.328900 0.000322 -0.000009 25.697500 -6.400880 -103.044000 -22.291500 -0.000108 -0.000004 43.632700 5.323690 -0.602540 -2.192480 -6.469440 -0.000000 -174.931000 -11.382200 -5.903320 39.081100 -0.000007 -0.000012 -0.213583 0.307951 34.744000 40.985400 -0.000006 -0.000013 0.518291 5.698050 -68.475700 11.754300 -0.000000 0.000003 -0.000083 -0.000880 -16.611400 -2.192510 6.469440 -0.000001 176.361000 19.028500 175.637000 -39.081100 -0.002282 -0.040193 -0.128743 0.194189 34.213300 -40.985400 0.000008 0.000006 5.738740 12.542800 -70.088900 -11.754300 -0.000006 -0.000006 -0.002946 -0.039989 -18.199400
0.000000 0.000000 0.000000 0.000000 0.000000 -0.000000 -1.068250 90.314000 -5.247260 89.354500 -2.241820 10.265600 15.735700 0.000005 -0.000001 88.790700 78.568500 -89.279100 8.984550 -0.406207 -0.000000 15.090400 -0.507243 -0.910300 16.377300 -0.000001 -0.000001 7.187410 -3.012790 1.816700 6.456720 -0.000001 -0.000000 -7.417820 -2.206230 1.490650 12.994200 -0.242716 4.980390 -90.099700 0.354782 -74.308100 5.348090 -0.000007 -0.000001 -75.892400 -18.837200 -66.916400 24.328600 0.000019 0.000005 43.630500 -9.133950 -99.454100 22.291600 -0.000001 0.000005 41.991400 4.847270 10.413700 12.994500 -0.242716 -4.980390 89.414600 3.637930 -80.851700 -5.348130 -0.000001 -0.000004 -68.157200 -21.239800 -69.158700 -24.328900 0.000322 -0.000009 25.662700 -6.403680 -103.069000 -22.291500 -0.000108 -0.000004 44.030800 5.300590 0.055293 -2.192480 -6.469440 -0.000000 -174.942000 -11.357300 -5.861830 39.081100 -0.000007 -0.000012 -0.213815 0.308129 34.757800 40.985400 -0.000006 -0.000013 0.502241 5.666490 -68.519900 11.754300 -0.000000 0.000003 -0.000085 -0.000898 -16.612100 -2.192510 6.469440 -0.000001 176.321000 19.028700 175.677000 -39.081100 -0.002282 -0.040193 -0.134017 0.201830 34.228500 -40.985400 0.000008 0.000006 5.628240 12.560200 -70.103000 -11.754300 -0.000006 -0.000006 -0.002968 -0.040240 -18.209600
0.000000 0.000000 0.000000 0.000000 0.000000 -0.000000 -1.083360 90.311700 -5.205110 89.331300 -2.230950 10.254700 15.735700 0.000005 -0.000001 88.857700 78.569100 -89.339200 8.984550 -0.406207 -0.000000 15.089700 -0.480377 -0.900011 16.377300 -0.000001 -0.000001 7.193020 -2.991790 1.894720 6.456720 -0.000001 -0.000000 -7.380590 -2.211060 1.497840 12.994200 -0.242716 4.980390 -90.124100 0.442136 -74.328000 5.348090 -0.000007 -0.000001 -78.874300 -20.120700 -66.428800 24.328600 0.000019 0.000005 42.820500 -8.641780 -99.210100 22.291600 -0.000001 0.000005 42.531700 4.831260 10.722200 12.994500 -0.242716 -4.980390 89.403100 3.721290 -80.880200 -5.348130 -0.000001 -0.000004 -70.847600 -22.022000 -69.205700 -24.328900 0.000322 -0.000009 25.282800 -6.373490 -103.226000 -22.291500 -0.000108 -0.000004 44.522900 5.283680 0.525155 -2.192480 -6.469440 -0.000000 -174.908000 -11.333200 -5.858130 39.081100 -0.000007 -0.000012 -0.214702 0.309207 34.775100 40.985400 -0.000006 -0.000013 0.489345 5.669840 -68.550000 11.754300 -0.000000 0.000003 -0.000083 -0.000881 -16.611500 -2.192510 6.469440 -0.000001 176.356000 19.038400 175.699000 -39.081100 -0.002282 -0.040193 -0.130584 0.196785 34.228300 -40.985400 0.000008 0.000006 5.696960 12.541900 -70.152200 -11.754300 -0.000006 -0.000006 -0.002939 -0.039910 -18.196200
